<?xml version="1.0" encoding="UTF-8" standalone="no"?>
<!DOCTYPE svg PUBLIC "-//W3C//DTD SVG 1.1//EN"
 "http://www.w3.org/Graphics/SVG/1.1/DTD/svg11.dtd">
<!-- Generated by graphviz version 2.40.1 (20161225.0304)
 -->
<!-- Title: snakemake_dag Pages: 1 -->
<svg width="1337pt" height="404pt"
 viewBox="0.00 0.00 1337.00 404.00" xmlns="http://www.w3.org/2000/svg" xmlns:xlink="http://www.w3.org/1999/xlink">
<g id="graph0" class="graph" transform="scale(1 1) rotate(0) translate(4 400)">
<title>snakemake_dag</title>
<polygon fill="#ffffff" stroke="transparent" points="-4,4 -4,-400 1333,-400 1333,4 -4,4"/>
<!-- 0 -->
<g id="node1" class="node">
<title>0</title>
<path fill="none" stroke="#56d87b" stroke-width="2" d="M677.5,-36C677.5,-36 647.5,-36 647.5,-36 641.5,-36 635.5,-30 635.5,-24 635.5,-24 635.5,-12 635.5,-12 635.5,-6 641.5,0 647.5,0 647.5,0 677.5,0 677.5,0 683.5,0 689.5,-6 689.5,-12 689.5,-12 689.5,-24 689.5,-24 689.5,-30 683.5,-36 677.5,-36"/>
<text text-anchor="middle" x="662.5" y="-15.5" font-family="sans" font-size="10.00" fill="#000000">all</text>
</g>
<!-- 1 -->
<g id="node2" class="node">
<title>1</title>
<path fill="none" stroke="#d85656" stroke-width="2" d="M1190.5,-324C1190.5,-324 1142.5,-324 1142.5,-324 1136.5,-324 1130.5,-318 1130.5,-312 1130.5,-312 1130.5,-300 1130.5,-300 1130.5,-294 1136.5,-288 1142.5,-288 1142.5,-288 1190.5,-288 1190.5,-288 1196.5,-288 1202.5,-294 1202.5,-300 1202.5,-300 1202.5,-312 1202.5,-312 1202.5,-318 1196.5,-324 1190.5,-324"/>
<text text-anchor="middle" x="1166.5" y="-303.5" font-family="sans" font-size="10.00" fill="#000000">make_snps</text>
</g>
<!-- 1&#45;&gt;0 -->
<g id="edge1" class="edge">
<title>1&#45;&gt;0</title>
<path fill="none" stroke="#c0c0c0" stroke-width="2" d="M1167.8324,-287.8774C1169.3902,-256.9815 1169.4924,-192.7295 1148.5,-144 1131.9065,-105.4816 1124.3635,-92.0024 1087.5,-72 1020.8426,-35.8313 790.699,-23.0199 699.8278,-19.3044"/>
<polygon fill="#c0c0c0" stroke="#c0c0c0" stroke-width="2" points="699.8381,-15.8022 689.7078,-18.905 699.5619,-22.7968 699.8381,-15.8022"/>
</g>
<!-- 19 -->
<g id="node20" class="node">
<title>19</title>
<path fill="none" stroke="#d8a456" stroke-width="2" d="M1127.5,-180C1127.5,-180 1085.5,-180 1085.5,-180 1079.5,-180 1073.5,-174 1073.5,-168 1073.5,-168 1073.5,-156 1073.5,-156 1073.5,-150 1079.5,-144 1085.5,-144 1085.5,-144 1127.5,-144 1127.5,-144 1133.5,-144 1139.5,-150 1139.5,-156 1139.5,-156 1139.5,-168 1139.5,-168 1139.5,-174 1133.5,-180 1127.5,-180"/>
<text text-anchor="middle" x="1106.5" y="-159.5" font-family="sans" font-size="10.00" fill="#000000">call_cfdna</text>
</g>
<!-- 1&#45;&gt;19 -->
<g id="edge52" class="edge">
<title>1&#45;&gt;19</title>
<path fill="none" stroke="#c0c0c0" stroke-width="2" d="M1158.901,-287.7623C1148.5769,-262.9846 1130.0297,-218.4714 1117.9975,-189.5939"/>
<polygon fill="#c0c0c0" stroke="#c0c0c0" stroke-width="2" points="1121.1143,-187.9742 1114.0373,-180.0896 1114.6528,-190.6666 1121.1143,-187.9742"/>
</g>
<!-- 23 -->
<g id="node24" class="node">
<title>23</title>
<path fill="none" stroke="#56d8c9" stroke-width="2" d="M1236.5,-252C1236.5,-252 1206.5,-252 1206.5,-252 1200.5,-252 1194.5,-246 1194.5,-240 1194.5,-240 1194.5,-228 1194.5,-228 1194.5,-222 1200.5,-216 1206.5,-216 1206.5,-216 1236.5,-216 1236.5,-216 1242.5,-216 1248.5,-222 1248.5,-228 1248.5,-228 1248.5,-240 1248.5,-240 1248.5,-246 1242.5,-252 1236.5,-252"/>
<text text-anchor="middle" x="1221.5" y="-231.5" font-family="sans" font-size="10.00" fill="#000000">mileup</text>
</g>
<!-- 1&#45;&gt;23 -->
<g id="edge57" class="edge">
<title>1&#45;&gt;23</title>
<path fill="none" stroke="#c0c0c0" stroke-width="2" d="M1180.3788,-287.8314C1186.7136,-279.5386 1194.3384,-269.557 1201.2926,-260.4533"/>
<polygon fill="#c0c0c0" stroke="#c0c0c0" stroke-width="2" points="1204.1452,-262.4847 1207.4343,-252.4133 1198.5825,-258.2353 1204.1452,-262.4847"/>
</g>
<!-- 2 -->
<g id="node3" class="node">
<title>2</title>
<path fill="none" stroke="#d8a456" stroke-width="2" d="M243.5,-180C243.5,-180 201.5,-180 201.5,-180 195.5,-180 189.5,-174 189.5,-168 189.5,-168 189.5,-156 189.5,-156 189.5,-150 195.5,-144 201.5,-144 201.5,-144 243.5,-144 243.5,-144 249.5,-144 255.5,-150 255.5,-156 255.5,-156 255.5,-168 255.5,-168 255.5,-174 249.5,-180 243.5,-180"/>
<text text-anchor="middle" x="222.5" y="-159.5" font-family="sans" font-size="10.00" fill="#000000">call_cfdna</text>
</g>
<!-- 2&#45;&gt;0 -->
<g id="edge2" class="edge">
<title>2&#45;&gt;0</title>
<path fill="none" stroke="#c0c0c0" stroke-width="2" d="M226.653,-143.8203C232.4562,-122.8724 245.1346,-89.1399 269.5,-72 326.4127,-31.9646 538.3416,-21.4872 625.1046,-18.8495"/>
<polygon fill="#c0c0c0" stroke="#c0c0c0" stroke-width="2" points="625.3915,-22.3428 635.2875,-18.5588 625.1916,-15.3457 625.3915,-22.3428"/>
</g>
<!-- 5 -->
<g id="node6" class="node">
<title>5</title>
<path fill="none" stroke="#78d856" stroke-width="2" d="M622.5,-108C622.5,-108 574.5,-108 574.5,-108 568.5,-108 562.5,-102 562.5,-96 562.5,-96 562.5,-84 562.5,-84 562.5,-78 568.5,-72 574.5,-72 574.5,-72 622.5,-72 622.5,-72 628.5,-72 634.5,-78 634.5,-84 634.5,-84 634.5,-96 634.5,-96 634.5,-102 628.5,-108 622.5,-108"/>
<text text-anchor="middle" x="598.5" y="-87.5" font-family="sans" font-size="10.00" fill="#000000">final_report</text>
</g>
<!-- 2&#45;&gt;5 -->
<g id="edge33" class="edge">
<title>2&#45;&gt;5</title>
<path fill="none" stroke="#c0c0c0" stroke-width="2" d="M255.538,-155.6736C322.7663,-142.8001 475.6071,-113.5327 552.5051,-98.8075"/>
<polygon fill="#c0c0c0" stroke="#c0c0c0" stroke-width="2" points="553.2256,-102.2332 562.3889,-96.9149 551.9091,-95.3581 553.2256,-102.2332"/>
</g>
<!-- 3 -->
<g id="node4" class="node">
<title>3</title>
<path fill="none" stroke="#d85656" stroke-width="2" d="M405.5,-324C405.5,-324 357.5,-324 357.5,-324 351.5,-324 345.5,-318 345.5,-312 345.5,-312 345.5,-300 345.5,-300 345.5,-294 351.5,-288 357.5,-288 357.5,-288 405.5,-288 405.5,-288 411.5,-288 417.5,-294 417.5,-300 417.5,-300 417.5,-312 417.5,-312 417.5,-318 411.5,-324 405.5,-324"/>
<text text-anchor="middle" x="381.5" y="-303.5" font-family="sans" font-size="10.00" fill="#000000">make_snps</text>
</g>
<!-- 3&#45;&gt;0 -->
<g id="edge3" class="edge">
<title>3&#45;&gt;0</title>
<path fill="none" stroke="#c0c0c0" stroke-width="2" d="M377.4804,-287.7367C368.578,-241.788 353.0528,-121.5319 421.5,-72 453.7775,-48.6424 566.1975,-30.7397 625.392,-22.6813"/>
<polygon fill="#c0c0c0" stroke="#c0c0c0" stroke-width="2" points="626.0016,-26.1311 635.4498,-21.3372 625.0743,-19.1927 626.0016,-26.1311"/>
</g>
<!-- 4 -->
<g id="node5" class="node">
<title>4</title>
<path fill="none" stroke="#d8a456" stroke-width="2" d="M441.5,-180C441.5,-180 399.5,-180 399.5,-180 393.5,-180 387.5,-174 387.5,-168 387.5,-168 387.5,-156 387.5,-156 387.5,-150 393.5,-144 399.5,-144 399.5,-144 441.5,-144 441.5,-144 447.5,-144 453.5,-150 453.5,-156 453.5,-156 453.5,-168 453.5,-168 453.5,-174 447.5,-180 441.5,-180"/>
<text text-anchor="middle" x="420.5" y="-159.5" font-family="sans" font-size="10.00" fill="#000000">call_cfdna</text>
</g>
<!-- 3&#45;&gt;4 -->
<g id="edge30" class="edge">
<title>3&#45;&gt;4</title>
<path fill="none" stroke="#c0c0c0" stroke-width="2" d="M386.4394,-287.7623C393.1207,-263.0928 405.1005,-218.8598 412.924,-189.9731"/>
<polygon fill="#c0c0c0" stroke="#c0c0c0" stroke-width="2" points="416.3648,-190.6569 415.6007,-180.0896 409.6082,-188.8269 416.3648,-190.6569"/>
</g>
<!-- 16 -->
<g id="node17" class="node">
<title>16</title>
<path fill="none" stroke="#56d8c9" stroke-width="2" d="M341.5,-252C341.5,-252 311.5,-252 311.5,-252 305.5,-252 299.5,-246 299.5,-240 299.5,-240 299.5,-228 299.5,-228 299.5,-222 305.5,-216 311.5,-216 311.5,-216 341.5,-216 341.5,-216 347.5,-216 353.5,-222 353.5,-228 353.5,-228 353.5,-240 353.5,-240 353.5,-246 347.5,-252 341.5,-252"/>
<text text-anchor="middle" x="326.5" y="-231.5" font-family="sans" font-size="10.00" fill="#000000">mileup</text>
</g>
<!-- 3&#45;&gt;16 -->
<g id="edge47" class="edge">
<title>3&#45;&gt;16</title>
<path fill="none" stroke="#c0c0c0" stroke-width="2" d="M367.6212,-287.8314C361.2864,-279.5386 353.6616,-269.557 346.7074,-260.4533"/>
<polygon fill="#c0c0c0" stroke="#c0c0c0" stroke-width="2" points="349.4175,-258.2353 340.5657,-252.4133 343.8548,-262.4847 349.4175,-258.2353"/>
</g>
<!-- 4&#45;&gt;0 -->
<g id="edge4" class="edge">
<title>4&#45;&gt;0</title>
<path fill="none" stroke="#c0c0c0" stroke-width="2" d="M420.2,-143.7922C420.8916,-123.4587 425.2351,-90.9253 444.5,-72 469.9122,-47.0357 570.1099,-30.1979 625.3882,-22.604"/>
<polygon fill="#c0c0c0" stroke="#c0c0c0" stroke-width="2" points="626.0377,-26.0483 635.4843,-21.2512 625.108,-19.1103 626.0377,-26.0483"/>
</g>
<!-- 4&#45;&gt;5 -->
<g id="edge34" class="edge">
<title>4&#45;&gt;5</title>
<path fill="none" stroke="#c0c0c0" stroke-width="2" d="M453.5633,-148.6261C481.5353,-137.3116 521.9043,-120.9825 552.9379,-108.4296"/>
<polygon fill="#c0c0c0" stroke="#c0c0c0" stroke-width="2" points="554.2873,-111.6593 562.2452,-104.6649 551.6624,-105.1701 554.2873,-111.6593"/>
</g>
<!-- 5&#45;&gt;0 -->
<g id="edge5" class="edge">
<title>5&#45;&gt;0</title>
<path fill="none" stroke="#c0c0c0" stroke-width="2" d="M614.6499,-71.8314C622.1717,-63.3694 631.2565,-53.1489 639.4804,-43.8971"/>
<polygon fill="#c0c0c0" stroke="#c0c0c0" stroke-width="2" points="642.1049,-46.2127 646.1327,-36.4133 636.873,-41.5621 642.1049,-46.2127"/>
</g>
<!-- 6 -->
<g id="node7" class="node">
<title>6</title>
<path fill="none" stroke="#56a2d8" stroke-width="2" d="M1098,-324C1098,-324 1015,-324 1015,-324 1009,-324 1003,-318 1003,-312 1003,-312 1003,-300 1003,-300 1003,-294 1009,-288 1015,-288 1015,-288 1098,-288 1098,-288 1104,-288 1110,-294 1110,-300 1110,-300 1110,-312 1110,-312 1110,-318 1104,-324 1098,-324"/>
<text text-anchor="middle" x="1056.5" y="-309" font-family="sans" font-size="10.00" fill="#000000">bowtie</text>
<text text-anchor="middle" x="1056.5" y="-298" font-family="sans" font-size="10.00" fill="#000000">sample: sample06</text>
</g>
<!-- 6&#45;&gt;0 -->
<g id="edge6" class="edge">
<title>6&#45;&gt;0</title>
<path fill="none" stroke="#c0c0c0" stroke-width="2" d="M1059.0289,-287.7026C1064.0339,-243.2385 1069.844,-128.9874 1007.5,-72 963.0156,-31.3377 779.5285,-21.2642 699.785,-18.7927"/>
<polygon fill="#c0c0c0" stroke="#c0c0c0" stroke-width="2" points="699.7895,-15.2915 689.6934,-18.5037 699.5891,-22.2887 699.7895,-15.2915"/>
</g>
<!-- 24 -->
<g id="node25" class="node">
<title>24</title>
<path fill="none" stroke="#56d8c9" stroke-width="2" d="M1017.5,-252C1017.5,-252 987.5,-252 987.5,-252 981.5,-252 975.5,-246 975.5,-240 975.5,-240 975.5,-228 975.5,-228 975.5,-222 981.5,-216 987.5,-216 987.5,-216 1017.5,-216 1017.5,-216 1023.5,-216 1029.5,-222 1029.5,-228 1029.5,-228 1029.5,-240 1029.5,-240 1029.5,-246 1023.5,-252 1017.5,-252"/>
<text text-anchor="middle" x="1002.5" y="-231.5" font-family="sans" font-size="10.00" fill="#000000">mileup</text>
</g>
<!-- 6&#45;&gt;24 -->
<g id="edge59" class="edge">
<title>6&#45;&gt;24</title>
<path fill="none" stroke="#c0c0c0" stroke-width="2" d="M1042.8735,-287.8314C1036.654,-279.5386 1029.1678,-269.557 1022.34,-260.4533"/>
<polygon fill="#c0c0c0" stroke="#c0c0c0" stroke-width="2" points="1025.11,-258.3133 1016.31,-252.4133 1019.51,-262.5133 1025.11,-258.3133"/>
</g>
<!-- 7 -->
<g id="node8" class="node">
<title>7</title>
<path fill="none" stroke="#56a2d8" stroke-width="2" d="M314,-324C314,-324 231,-324 231,-324 225,-324 219,-318 219,-312 219,-312 219,-300 219,-300 219,-294 225,-288 231,-288 231,-288 314,-288 314,-288 320,-288 326,-294 326,-300 326,-300 326,-312 326,-312 326,-318 320,-324 314,-324"/>
<text text-anchor="middle" x="272.5" y="-309" font-family="sans" font-size="10.00" fill="#000000">bowtie</text>
<text text-anchor="middle" x="272.5" y="-298" font-family="sans" font-size="10.00" fill="#000000">sample: sample03</text>
</g>
<!-- 7&#45;&gt;0 -->
<g id="edge7" class="edge">
<title>7&#45;&gt;0</title>
<path fill="none" stroke="#c0c0c0" stroke-width="2" d="M270.0972,-287.8381C265.3758,-243.679 260.1549,-130.0613 321.5,-72 364.7243,-31.0895 546.0819,-21.1552 625.258,-18.7569"/>
<polygon fill="#c0c0c0" stroke="#c0c0c0" stroke-width="2" points="625.3843,-22.2548 635.2828,-18.4773 625.1891,-15.2575 625.3843,-22.2548"/>
</g>
<!-- 7&#45;&gt;16 -->
<g id="edge46" class="edge">
<title>7&#45;&gt;16</title>
<path fill="none" stroke="#c0c0c0" stroke-width="2" d="M286.1265,-287.8314C292.346,-279.5386 299.8322,-269.557 306.66,-260.4533"/>
<polygon fill="#c0c0c0" stroke="#c0c0c0" stroke-width="2" points="309.49,-262.5133 312.69,-252.4133 303.89,-258.3133 309.49,-262.5133"/>
</g>
<!-- 8 -->
<g id="node9" class="node">
<title>8</title>
<path fill="none" stroke="#d8a456" stroke-width="2" d="M563.5,-180C563.5,-180 521.5,-180 521.5,-180 515.5,-180 509.5,-174 509.5,-168 509.5,-168 509.5,-156 509.5,-156 509.5,-150 515.5,-144 521.5,-144 521.5,-144 563.5,-144 563.5,-144 569.5,-144 575.5,-150 575.5,-156 575.5,-156 575.5,-168 575.5,-168 575.5,-174 569.5,-180 563.5,-180"/>
<text text-anchor="middle" x="542.5" y="-159.5" font-family="sans" font-size="10.00" fill="#000000">call_cfdna</text>
</g>
<!-- 8&#45;&gt;0 -->
<g id="edge8" class="edge">
<title>8&#45;&gt;0</title>
<path fill="none" stroke="#c0c0c0" stroke-width="2" d="M530.216,-143.8979C518.7652,-124.5449 505.5245,-93.7166 520.5,-72 532.8016,-54.1609 587.8133,-36.975 625.6391,-26.9533"/>
<polygon fill="#c0c0c0" stroke="#c0c0c0" stroke-width="2" points="626.5232,-30.3399 635.3252,-24.4429 624.7669,-23.5638 626.5232,-30.3399"/>
</g>
<!-- 8&#45;&gt;5 -->
<g id="edge32" class="edge">
<title>8&#45;&gt;5</title>
<path fill="none" stroke="#c0c0c0" stroke-width="2" d="M556.6312,-143.8314C563.0811,-135.5386 570.8445,-125.557 577.9252,-116.4533"/>
<polygon fill="#c0c0c0" stroke="#c0c0c0" stroke-width="2" points="580.8019,-118.4556 584.1786,-108.4133 575.2764,-114.158 580.8019,-118.4556"/>
</g>
<!-- 9 -->
<g id="node10" class="node">
<title>9</title>
<path fill="none" stroke="#d85656" stroke-width="2" d="M186.5,-324C186.5,-324 138.5,-324 138.5,-324 132.5,-324 126.5,-318 126.5,-312 126.5,-312 126.5,-300 126.5,-300 126.5,-294 132.5,-288 138.5,-288 138.5,-288 186.5,-288 186.5,-288 192.5,-288 198.5,-294 198.5,-300 198.5,-300 198.5,-312 198.5,-312 198.5,-318 192.5,-324 186.5,-324"/>
<text text-anchor="middle" x="162.5" y="-303.5" font-family="sans" font-size="10.00" fill="#000000">make_snps</text>
</g>
<!-- 9&#45;&gt;0 -->
<g id="edge9" class="edge">
<title>9&#45;&gt;0</title>
<path fill="none" stroke="#c0c0c0" stroke-width="2" d="M161.1385,-287.6806C158.7939,-240.4943 160.2388,-115.4539 236.5,-72 302.6222,-34.3233 534.2316,-22.3963 625.3112,-19.1111"/>
<polygon fill="#c0c0c0" stroke="#c0c0c0" stroke-width="2" points="625.5769,-22.6041 635.4499,-18.7605 625.3349,-15.6083 625.5769,-22.6041"/>
</g>
<!-- 9&#45;&gt;2 -->
<g id="edge28" class="edge">
<title>9&#45;&gt;2</title>
<path fill="none" stroke="#c0c0c0" stroke-width="2" d="M170.099,-287.7623C180.4231,-262.9846 198.9703,-218.4714 211.0025,-189.5939"/>
<polygon fill="#c0c0c0" stroke="#c0c0c0" stroke-width="2" points="214.3472,-190.6666 214.9627,-180.0896 207.8857,-187.9742 214.3472,-190.6666"/>
</g>
<!-- 18 -->
<g id="node19" class="node">
<title>18</title>
<path fill="none" stroke="#56d8c9" stroke-width="2" d="M122.5,-252C122.5,-252 92.5,-252 92.5,-252 86.5,-252 80.5,-246 80.5,-240 80.5,-240 80.5,-228 80.5,-228 80.5,-222 86.5,-216 92.5,-216 92.5,-216 122.5,-216 122.5,-216 128.5,-216 134.5,-222 134.5,-228 134.5,-228 134.5,-240 134.5,-240 134.5,-246 128.5,-252 122.5,-252"/>
<text text-anchor="middle" x="107.5" y="-231.5" font-family="sans" font-size="10.00" fill="#000000">mileup</text>
</g>
<!-- 9&#45;&gt;18 -->
<g id="edge49" class="edge">
<title>9&#45;&gt;18</title>
<path fill="none" stroke="#c0c0c0" stroke-width="2" d="M148.6212,-287.8314C142.2864,-279.5386 134.6616,-269.557 127.7074,-260.4533"/>
<polygon fill="#c0c0c0" stroke="#c0c0c0" stroke-width="2" points="130.4175,-258.2353 121.5657,-252.4133 124.8548,-262.4847 130.4175,-258.2353"/>
</g>
<!-- 10 -->
<g id="node11" class="node">
<title>10</title>
<path fill="none" stroke="#d85656" stroke-width="2" d="M863.5,-324C863.5,-324 815.5,-324 815.5,-324 809.5,-324 803.5,-318 803.5,-312 803.5,-312 803.5,-300 803.5,-300 803.5,-294 809.5,-288 815.5,-288 815.5,-288 863.5,-288 863.5,-288 869.5,-288 875.5,-294 875.5,-300 875.5,-300 875.5,-312 875.5,-312 875.5,-318 869.5,-324 863.5,-324"/>
<text text-anchor="middle" x="839.5" y="-303.5" font-family="sans" font-size="10.00" fill="#000000">make_snps</text>
</g>
<!-- 10&#45;&gt;0 -->
<g id="edge10" class="edge">
<title>10&#45;&gt;0</title>
<path fill="none" stroke="#c0c0c0" stroke-width="2" d="M841.4856,-287.8252C844.1448,-257.123 846.634,-193.4976 828.5,-144 814.8311,-106.6901 806.1196,-97.3239 775.5,-72 752.9225,-53.3273 722.805,-39.3506 699.3406,-30.2998"/>
<polygon fill="#c0c0c0" stroke="#c0c0c0" stroke-width="2" points="700.3259,-26.932 689.7331,-26.7231 697.8836,-33.4921 700.3259,-26.932"/>
</g>
<!-- 13 -->
<g id="node14" class="node">
<title>13</title>
<path fill="none" stroke="#56d8c9" stroke-width="2" d="M760.5,-252C760.5,-252 730.5,-252 730.5,-252 724.5,-252 718.5,-246 718.5,-240 718.5,-240 718.5,-228 718.5,-228 718.5,-222 724.5,-216 730.5,-216 730.5,-216 760.5,-216 760.5,-216 766.5,-216 772.5,-222 772.5,-228 772.5,-228 772.5,-240 772.5,-240 772.5,-246 766.5,-252 760.5,-252"/>
<text text-anchor="middle" x="745.5" y="-231.5" font-family="sans" font-size="10.00" fill="#000000">mileup</text>
</g>
<!-- 10&#45;&gt;13 -->
<g id="edge44" class="edge">
<title>10&#45;&gt;13</title>
<path fill="none" stroke="#c0c0c0" stroke-width="2" d="M815.7798,-287.8314C804.0906,-278.8779 789.8312,-267.9558 777.2191,-258.2955"/>
<polygon fill="#c0c0c0" stroke="#c0c0c0" stroke-width="2" points="779.2797,-255.4651 769.2126,-252.1628 775.0231,-261.0222 779.2797,-255.4651"/>
</g>
<!-- 20 -->
<g id="node21" class="node">
<title>20</title>
<path fill="none" stroke="#d8a456" stroke-width="2" d="M807.5,-180C807.5,-180 765.5,-180 765.5,-180 759.5,-180 753.5,-174 753.5,-168 753.5,-168 753.5,-156 753.5,-156 753.5,-150 759.5,-144 765.5,-144 765.5,-144 807.5,-144 807.5,-144 813.5,-144 819.5,-150 819.5,-156 819.5,-156 819.5,-168 819.5,-168 819.5,-174 813.5,-180 807.5,-180"/>
<text text-anchor="middle" x="786.5" y="-159.5" font-family="sans" font-size="10.00" fill="#000000">call_cfdna</text>
</g>
<!-- 10&#45;&gt;20 -->
<g id="edge54" class="edge">
<title>10&#45;&gt;20</title>
<path fill="none" stroke="#c0c0c0" stroke-width="2" d="M832.7875,-287.7623C823.668,-262.9846 807.2846,-218.4714 796.6561,-189.5939"/>
<polygon fill="#c0c0c0" stroke="#c0c0c0" stroke-width="2" points="799.8967,-188.2652 793.158,-180.0896 793.3275,-190.6831 799.8967,-188.2652"/>
</g>
<!-- 11 -->
<g id="node12" class="node">
<title>11</title>
<path fill="none" stroke="#56d8c9" stroke-width="2" d="M606.5,-252C606.5,-252 576.5,-252 576.5,-252 570.5,-252 564.5,-246 564.5,-240 564.5,-240 564.5,-228 564.5,-228 564.5,-222 570.5,-216 576.5,-216 576.5,-216 606.5,-216 606.5,-216 612.5,-216 618.5,-222 618.5,-228 618.5,-228 618.5,-240 618.5,-240 618.5,-246 612.5,-252 606.5,-252"/>
<text text-anchor="middle" x="591.5" y="-231.5" font-family="sans" font-size="10.00" fill="#000000">mileup</text>
</g>
<!-- 11&#45;&gt;0 -->
<g id="edge11" class="edge">
<title>11&#45;&gt;0</title>
<path fill="none" stroke="#c0c0c0" stroke-width="2" d="M593.3065,-215.9894C594.4653,-197.2552 594.2527,-167.4411 584.5,-144 576.3892,-124.5053 560.8482,-127.7947 553.5,-108 547.9317,-93.0002 545.0633,-85.5949 553.5,-72 569.0617,-46.9238 600.1144,-33.1336 625.1083,-25.7801"/>
<polygon fill="#c0c0c0" stroke="#c0c0c0" stroke-width="2" points="626.2984,-29.0841 635.0378,-23.0946 624.4708,-22.3269 626.2984,-29.0841"/>
</g>
<!-- 11&#45;&gt;8 -->
<g id="edge39" class="edge">
<title>11&#45;&gt;8</title>
<path fill="none" stroke="#c0c0c0" stroke-width="2" d="M579.1352,-215.8314C573.5491,-207.6232 566.837,-197.7606 560.6928,-188.7323"/>
<polygon fill="#c0c0c0" stroke="#c0c0c0" stroke-width="2" points="563.551,-186.7112 555.0313,-180.4133 557.764,-190.6496 563.551,-186.7112"/>
</g>
<!-- 12 -->
<g id="node13" class="node">
<title>12</title>
<path fill="none" stroke="#56a2d8" stroke-width="2" d="M95,-324C95,-324 12,-324 12,-324 6,-324 0,-318 0,-312 0,-312 0,-300 0,-300 0,-294 6,-288 12,-288 12,-288 95,-288 95,-288 101,-288 107,-294 107,-300 107,-300 107,-312 107,-312 107,-318 101,-324 95,-324"/>
<text text-anchor="middle" x="53.5" y="-309" font-family="sans" font-size="10.00" fill="#000000">bowtie</text>
<text text-anchor="middle" x="53.5" y="-298" font-family="sans" font-size="10.00" fill="#000000">sample: sample04</text>
</g>
<!-- 12&#45;&gt;0 -->
<g id="edge12" class="edge">
<title>12&#45;&gt;0</title>
<path fill="none" stroke="#c0c0c0" stroke-width="2" d="M52.1744,-287.9592C49.9839,-243.0577 51.2992,-126.0239 118.5,-72 157.9068,-40.3202 508.6509,-23.9646 625.1053,-19.3723"/>
<polygon fill="#c0c0c0" stroke="#c0c0c0" stroke-width="2" points="625.4535,-22.8615 635.3103,-18.9765 625.1821,-15.8668 625.4535,-22.8615"/>
</g>
<!-- 12&#45;&gt;18 -->
<g id="edge50" class="edge">
<title>12&#45;&gt;18</title>
<path fill="none" stroke="#c0c0c0" stroke-width="2" d="M67.1265,-287.8314C73.346,-279.5386 80.8322,-269.557 87.66,-260.4533"/>
<polygon fill="#c0c0c0" stroke="#c0c0c0" stroke-width="2" points="90.49,-262.5133 93.69,-252.4133 84.89,-258.3133 90.49,-262.5133"/>
</g>
<!-- 13&#45;&gt;0 -->
<g id="edge13" class="edge">
<title>13&#45;&gt;0</title>
<path fill="none" stroke="#c0c0c0" stroke-width="2" d="M745.34,-215.9007C744.3694,-184.7643 739.2546,-119.8053 714.5,-72 708.9917,-61.3626 700.7227,-51.3941 692.39,-42.9884"/>
<polygon fill="#c0c0c0" stroke="#c0c0c0" stroke-width="2" points="694.7624,-40.4142 685.1188,-36.0264 689.9213,-45.4703 694.7624,-40.4142"/>
</g>
<!-- 13&#45;&gt;20 -->
<g id="edge53" class="edge">
<title>13&#45;&gt;20</title>
<path fill="none" stroke="#c0c0c0" stroke-width="2" d="M755.846,-215.8314C760.4237,-207.7925 765.9052,-198.1666 770.9588,-189.2918"/>
<polygon fill="#c0c0c0" stroke="#c0c0c0" stroke-width="2" points="774.1077,-190.8351 776.0147,-180.4133 768.0248,-187.3712 774.1077,-190.8351"/>
</g>
<!-- 14 -->
<g id="node15" class="node">
<title>14</title>
<path fill="none" stroke="#56a2d8" stroke-width="2" d="M773,-324C773,-324 690,-324 690,-324 684,-324 678,-318 678,-312 678,-312 678,-300 678,-300 678,-294 684,-288 690,-288 690,-288 773,-288 773,-288 779,-288 785,-294 785,-300 785,-300 785,-312 785,-312 785,-318 779,-324 773,-324"/>
<text text-anchor="middle" x="731.5" y="-309" font-family="sans" font-size="10.00" fill="#000000">bowtie</text>
<text text-anchor="middle" x="731.5" y="-298" font-family="sans" font-size="10.00" fill="#000000">sample: sample02</text>
</g>
<!-- 14&#45;&gt;0 -->
<g id="edge14" class="edge">
<title>14&#45;&gt;0</title>
<path fill="none" stroke="#c0c0c0" stroke-width="2" d="M723.088,-287.8157C718.5654,-277.4855 713.1785,-264.2133 709.5,-252 687.5863,-179.2425 672.9505,-90.6501 666.4103,-46.2425"/>
<polygon fill="#c0c0c0" stroke="#c0c0c0" stroke-width="2" points="669.8524,-45.5893 664.9582,-36.1927 662.9244,-46.5905 669.8524,-45.5893"/>
</g>
<!-- 14&#45;&gt;13 -->
<g id="edge45" class="edge">
<title>14&#45;&gt;13</title>
<path fill="none" stroke="#c0c0c0" stroke-width="2" d="M735.0328,-287.8314C736.5301,-280.131 738.3105,-270.9743 739.9745,-262.4166"/>
<polygon fill="#c0c0c0" stroke="#c0c0c0" stroke-width="2" points="743.4465,-262.8975 741.9196,-252.4133 736.5752,-261.5614 743.4465,-262.8975"/>
</g>
<!-- 15 -->
<g id="node16" class="node">
<title>15</title>
<path fill="none" stroke="#56a2d8" stroke-width="2" d="M1317,-324C1317,-324 1234,-324 1234,-324 1228,-324 1222,-318 1222,-312 1222,-312 1222,-300 1222,-300 1222,-294 1228,-288 1234,-288 1234,-288 1317,-288 1317,-288 1323,-288 1329,-294 1329,-300 1329,-300 1329,-312 1329,-312 1329,-318 1323,-324 1317,-324"/>
<text text-anchor="middle" x="1275.5" y="-309" font-family="sans" font-size="10.00" fill="#000000">bowtie</text>
<text text-anchor="middle" x="1275.5" y="-298" font-family="sans" font-size="10.00" fill="#000000">sample: sample05</text>
</g>
<!-- 15&#45;&gt;0 -->
<g id="edge15" class="edge">
<title>15&#45;&gt;0</title>
<path fill="none" stroke="#c0c0c0" stroke-width="2" d="M1276.6788,-287.8019C1278.4893,-242.5365 1276.0898,-124.7283 1207.5,-72 1167.3411,-41.1279 816.4041,-24.2353 699.9062,-19.4404"/>
<polygon fill="#c0c0c0" stroke="#c0c0c0" stroke-width="2" points="699.8311,-15.9345 689.6975,-19.0266 699.5475,-22.9288 699.8311,-15.9345"/>
</g>
<!-- 15&#45;&gt;23 -->
<g id="edge58" class="edge">
<title>15&#45;&gt;23</title>
<path fill="none" stroke="#c0c0c0" stroke-width="2" d="M1261.8735,-287.8314C1255.654,-279.5386 1248.1678,-269.557 1241.34,-260.4533"/>
<polygon fill="#c0c0c0" stroke="#c0c0c0" stroke-width="2" points="1244.11,-258.3133 1235.31,-252.4133 1238.51,-262.5133 1244.11,-258.3133"/>
</g>
<!-- 16&#45;&gt;0 -->
<g id="edge16" class="edge">
<title>16&#45;&gt;0</title>
<path fill="none" stroke="#c0c0c0" stroke-width="2" d="M322.4003,-215.8204C316.0542,-182.4691 308.164,-111.3288 345.5,-72 383.2342,-32.2517 549.5585,-21.7098 625.0272,-18.9551"/>
<polygon fill="#c0c0c0" stroke="#c0c0c0" stroke-width="2" points="625.6003,-22.4378 635.4766,-18.6026 625.3643,-15.4418 625.6003,-22.4378"/>
</g>
<!-- 16&#45;&gt;4 -->
<g id="edge31" class="edge">
<title>16&#45;&gt;4</title>
<path fill="none" stroke="#c0c0c0" stroke-width="2" d="M350.2202,-215.8314C361.9094,-206.8779 376.1688,-195.9558 388.7809,-186.2955"/>
<polygon fill="#c0c0c0" stroke="#c0c0c0" stroke-width="2" points="390.9769,-189.0222 396.7874,-180.1628 386.7203,-183.4651 390.9769,-189.0222"/>
</g>
<!-- 17 -->
<g id="node18" class="node">
<title>17</title>
<path fill="none" stroke="#d85656" stroke-width="2" d="M522.5,-324C522.5,-324 474.5,-324 474.5,-324 468.5,-324 462.5,-318 462.5,-312 462.5,-312 462.5,-300 462.5,-300 462.5,-294 468.5,-288 474.5,-288 474.5,-288 522.5,-288 522.5,-288 528.5,-288 534.5,-294 534.5,-300 534.5,-300 534.5,-312 534.5,-312 534.5,-318 528.5,-324 522.5,-324"/>
<text text-anchor="middle" x="498.5" y="-303.5" font-family="sans" font-size="10.00" fill="#000000">make_snps</text>
</g>
<!-- 17&#45;&gt;0 -->
<g id="edge17" class="edge">
<title>17&#45;&gt;0</title>
<path fill="none" stroke="#c0c0c0" stroke-width="2" d="M492.8841,-287.6984C480.9141,-244.6874 457.9751,-135.9869 509.5,-72 524.28,-53.6453 585.0992,-36.2156 625.4619,-26.3427"/>
<polygon fill="#c0c0c0" stroke="#c0c0c0" stroke-width="2" points="626.333,-29.7331 635.2424,-23.9994 624.7021,-22.9257 626.333,-29.7331"/>
</g>
<!-- 17&#45;&gt;8 -->
<g id="edge38" class="edge">
<title>17&#45;&gt;8</title>
<path fill="none" stroke="#c0c0c0" stroke-width="2" d="M504.0726,-287.7623C511.6105,-263.0928 525.1262,-218.8598 533.9527,-189.9731"/>
<polygon fill="#c0c0c0" stroke="#c0c0c0" stroke-width="2" points="537.3976,-190.6759 536.9726,-180.0896 530.7031,-188.6303 537.3976,-190.6759"/>
</g>
<!-- 17&#45;&gt;11 -->
<g id="edge42" class="edge">
<title>17&#45;&gt;11</title>
<path fill="none" stroke="#c0c0c0" stroke-width="2" d="M521.9678,-287.8314C533.5327,-278.8779 547.6404,-267.9558 560.1183,-258.2955"/>
<polygon fill="#c0c0c0" stroke="#c0c0c0" stroke-width="2" points="562.275,-261.0521 568.0397,-252.1628 557.9898,-255.5171 562.275,-261.0521"/>
</g>
<!-- 18&#45;&gt;0 -->
<g id="edge18" class="edge">
<title>18&#45;&gt;0</title>
<path fill="none" stroke="#c0c0c0" stroke-width="2" d="M105.9006,-215.8035C104.0217,-181.7716 105.4495,-108.6288 147.5,-72 183.4133,-40.717 512.7654,-24.2228 625.1363,-19.4696"/>
<polygon fill="#c0c0c0" stroke="#c0c0c0" stroke-width="2" points="625.4705,-22.9588 635.3164,-19.0461 625.1795,-15.9648 625.4705,-22.9588"/>
</g>
<!-- 18&#45;&gt;2 -->
<g id="edge27" class="edge">
<title>18&#45;&gt;2</title>
<path fill="none" stroke="#c0c0c0" stroke-width="2" d="M134.7534,-216.937C149.6605,-207.6038 168.3594,-195.8967 184.6612,-185.6904"/>
<polygon fill="#c0c0c0" stroke="#c0c0c0" stroke-width="2" points="186.8134,-188.4724 193.4319,-180.1992 183.0987,-182.5393 186.8134,-188.4724"/>
</g>
<!-- 19&#45;&gt;0 -->
<g id="edge19" class="edge">
<title>19&#45;&gt;0</title>
<path fill="none" stroke="#c0c0c0" stroke-width="2" d="M1102.3511,-143.8146C1096.5517,-122.8611 1083.8771,-89.1234 1059.5,-72 1001.923,-31.5557 787.4064,-21.3108 699.962,-18.7925"/>
<polygon fill="#c0c0c0" stroke="#c0c0c0" stroke-width="2" points="699.7948,-15.2868 689.7041,-18.516 699.6062,-22.2842 699.7948,-15.2868"/>
</g>
<!-- 19&#45;&gt;5 -->
<g id="edge35" class="edge">
<title>19&#45;&gt;5</title>
<path fill="none" stroke="#c0c0c0" stroke-width="2" d="M1073.1687,-157.2759C985.032,-144.7841 745.6804,-110.8602 644.5689,-96.5295"/>
<polygon fill="#c0c0c0" stroke="#c0c0c0" stroke-width="2" points="645.0445,-93.062 634.6523,-95.1239 644.0621,-99.9927 645.0445,-93.062"/>
</g>
<!-- 20&#45;&gt;0 -->
<g id="edge20" class="edge">
<title>20&#45;&gt;0</title>
<path fill="none" stroke="#c0c0c0" stroke-width="2" d="M783.3623,-143.9869C779.1834,-124.4265 770.1655,-93.1533 752.5,-72 738.2769,-54.9687 717.2208,-41.9217 699.0505,-32.9222"/>
<polygon fill="#c0c0c0" stroke="#c0c0c0" stroke-width="2" points="700.4004,-29.689 689.8632,-28.5852 697.4122,-36.0192 700.4004,-29.689"/>
</g>
<!-- 20&#45;&gt;5 -->
<g id="edge37" class="edge">
<title>20&#45;&gt;5</title>
<path fill="none" stroke="#c0c0c0" stroke-width="2" d="M753.3221,-149.2936C723.0046,-137.6826 677.8941,-120.4063 644.1769,-107.4933"/>
<polygon fill="#c0c0c0" stroke="#c0c0c0" stroke-width="2" points="645.1405,-104.1145 634.5502,-103.8064 642.6369,-110.6515 645.1405,-104.1145"/>
</g>
<!-- 21 -->
<g id="node22" class="node">
<title>21</title>
<path fill="none" stroke="#d8a456" stroke-width="2" d="M929.5,-180C929.5,-180 887.5,-180 887.5,-180 881.5,-180 875.5,-174 875.5,-168 875.5,-168 875.5,-156 875.5,-156 875.5,-150 881.5,-144 887.5,-144 887.5,-144 929.5,-144 929.5,-144 935.5,-144 941.5,-150 941.5,-156 941.5,-156 941.5,-168 941.5,-168 941.5,-174 935.5,-180 929.5,-180"/>
<text text-anchor="middle" x="908.5" y="-159.5" font-family="sans" font-size="10.00" fill="#000000">call_cfdna</text>
</g>
<!-- 21&#45;&gt;0 -->
<g id="edge21" class="edge">
<title>21&#45;&gt;0</title>
<path fill="none" stroke="#c0c0c0" stroke-width="2" d="M903.838,-143.9856C897.6073,-123.5182 884.578,-90.5577 861.5,-72 836.6405,-52.0098 749.9461,-33.6812 699.5615,-24.3892"/>
<polygon fill="#c0c0c0" stroke="#c0c0c0" stroke-width="2" points="700.1613,-20.941 689.6971,-22.5998 698.9118,-27.8286 700.1613,-20.941"/>
</g>
<!-- 21&#45;&gt;5 -->
<g id="edge36" class="edge">
<title>21&#45;&gt;5</title>
<path fill="none" stroke="#c0c0c0" stroke-width="2" d="M875.3246,-154.2947C819.8405,-141.4081 708.0948,-115.4543 644.8635,-100.7683"/>
<polygon fill="#c0c0c0" stroke="#c0c0c0" stroke-width="2" points="645.3049,-97.2777 634.7723,-98.4245 643.7212,-104.0962 645.3049,-97.2777"/>
</g>
<!-- 22 -->
<g id="node23" class="node">
<title>22</title>
<path fill="none" stroke="#56a2d8" stroke-width="2" d="M648,-324C648,-324 565,-324 565,-324 559,-324 553,-318 553,-312 553,-312 553,-300 553,-300 553,-294 559,-288 565,-288 565,-288 648,-288 648,-288 654,-288 660,-294 660,-300 660,-300 660,-312 660,-312 660,-318 654,-324 648,-324"/>
<text text-anchor="middle" x="606.5" y="-309" font-family="sans" font-size="10.00" fill="#000000">bowtie</text>
<text text-anchor="middle" x="606.5" y="-298" font-family="sans" font-size="10.00" fill="#000000">sample: sample01</text>
</g>
<!-- 22&#45;&gt;0 -->
<g id="edge22" class="edge">
<title>22&#45;&gt;0</title>
<path fill="none" stroke="#c0c0c0" stroke-width="2" d="M614.7284,-287.8436C619.1075,-277.5222 624.2456,-264.2493 627.5,-252 646.8419,-179.1988 656.4329,-90.6253 660.3179,-46.2319"/>
<polygon fill="#c0c0c0" stroke="#c0c0c0" stroke-width="2" points="663.8123,-46.4442 661.1647,-36.1855 656.837,-45.8562 663.8123,-46.4442"/>
</g>
<!-- 22&#45;&gt;11 -->
<g id="edge43" class="edge">
<title>22&#45;&gt;11</title>
<path fill="none" stroke="#c0c0c0" stroke-width="2" d="M602.7149,-287.8314C601.1106,-280.131 599.203,-270.9743 597.4201,-262.4166"/>
<polygon fill="#c0c0c0" stroke="#c0c0c0" stroke-width="2" points="600.8021,-261.4892 595.3361,-252.4133 593.9493,-262.9169 600.8021,-261.4892"/>
</g>
<!-- 23&#45;&gt;0 -->
<g id="edge23" class="edge">
<title>23&#45;&gt;0</title>
<path fill="none" stroke="#c0c0c0" stroke-width="2" d="M1223.1021,-215.8004C1224.9856,-181.7632 1223.5651,-108.612 1181.5,-72 1145.2568,-40.4552 812.6353,-24.1076 699.7657,-19.4334"/>
<polygon fill="#c0c0c0" stroke="#c0c0c0" stroke-width="2" points="699.6803,-15.9271 689.5462,-19.0174 699.3955,-22.9213 699.6803,-15.9271"/>
</g>
<!-- 23&#45;&gt;19 -->
<g id="edge51" class="edge">
<title>23&#45;&gt;19</title>
<path fill="none" stroke="#c0c0c0" stroke-width="2" d="M1194.2466,-216.937C1179.3395,-207.6038 1160.6406,-195.8967 1144.3388,-185.6904"/>
<polygon fill="#c0c0c0" stroke="#c0c0c0" stroke-width="2" points="1145.9013,-182.5393 1135.5681,-180.1992 1142.1866,-188.4724 1145.9013,-182.5393"/>
</g>
<!-- 24&#45;&gt;0 -->
<g id="edge24" class="edge">
<title>24&#45;&gt;0</title>
<path fill="none" stroke="#c0c0c0" stroke-width="2" d="M1006.6074,-215.8131C1012.9662,-182.4496 1020.8766,-111.2903 983.5,-72 945.1366,-31.6724 775.7523,-21.434 699.6954,-18.8567"/>
<polygon fill="#c0c0c0" stroke="#c0c0c0" stroke-width="2" points="699.7107,-15.3555 689.6062,-18.5415 699.492,-22.3521 699.7107,-15.3555"/>
</g>
<!-- 24&#45;&gt;21 -->
<g id="edge55" class="edge">
<title>24&#45;&gt;21</title>
<path fill="none" stroke="#c0c0c0" stroke-width="2" d="M978.7798,-215.8314C967.0906,-206.8779 952.8312,-195.9558 940.2191,-186.2955"/>
<polygon fill="#c0c0c0" stroke="#c0c0c0" stroke-width="2" points="942.2797,-183.4651 932.2126,-180.1628 938.0231,-189.0222 942.2797,-183.4651"/>
</g>
<!-- 25 -->
<g id="node26" class="node">
<title>25</title>
<path fill="none" stroke="#d85656" stroke-width="2" d="M971.5,-324C971.5,-324 923.5,-324 923.5,-324 917.5,-324 911.5,-318 911.5,-312 911.5,-312 911.5,-300 911.5,-300 911.5,-294 917.5,-288 923.5,-288 923.5,-288 971.5,-288 971.5,-288 977.5,-288 983.5,-294 983.5,-300 983.5,-300 983.5,-312 983.5,-312 983.5,-318 977.5,-324 971.5,-324"/>
<text text-anchor="middle" x="947.5" y="-303.5" font-family="sans" font-size="10.00" fill="#000000">make_snps</text>
</g>
<!-- 25&#45;&gt;0 -->
<g id="edge25" class="edge">
<title>25&#45;&gt;0</title>
<path fill="none" stroke="#c0c0c0" stroke-width="2" d="M952.0261,-287.7853C958.7677,-257.0243 968.8066,-193.3145 950.5,-144 935.8035,-104.4106 924.5628,-93.9723 888.5,-72 828.9285,-35.7044 746.7187,-23.8039 699.6344,-19.9025"/>
<polygon fill="#c0c0c0" stroke="#c0c0c0" stroke-width="2" points="699.8132,-16.4061 689.5792,-19.1474 699.289,-23.3865 699.8132,-16.4061"/>
</g>
<!-- 25&#45;&gt;21 -->
<g id="edge56" class="edge">
<title>25&#45;&gt;21</title>
<path fill="none" stroke="#c0c0c0" stroke-width="2" d="M942.5606,-287.7623C935.8793,-263.0928 923.8995,-218.8598 916.076,-189.9731"/>
<polygon fill="#c0c0c0" stroke="#c0c0c0" stroke-width="2" points="919.3918,-188.8269 913.3993,-180.0896 912.6352,-190.6569 919.3918,-188.8269"/>
</g>
<!-- 25&#45;&gt;24 -->
<g id="edge60" class="edge">
<title>25&#45;&gt;24</title>
<path fill="none" stroke="#c0c0c0" stroke-width="2" d="M961.3788,-287.8314C967.7136,-279.5386 975.3384,-269.557 982.2926,-260.4533"/>
<polygon fill="#c0c0c0" stroke="#c0c0c0" stroke-width="2" points="985.1452,-262.4847 988.4343,-252.4133 979.5825,-258.2353 985.1452,-262.4847"/>
</g>
<!-- 26 -->
<g id="node27" class="node">
<title>26</title>
<path fill="none" stroke="#c6d856" stroke-width="2" d="M1212,-396C1212,-396 1121,-396 1121,-396 1115,-396 1109,-390 1109,-384 1109,-384 1109,-372 1109,-372 1109,-366 1115,-360 1121,-360 1121,-360 1212,-360 1212,-360 1218,-360 1224,-366 1224,-372 1224,-372 1224,-384 1224,-384 1224,-390 1218,-396 1212,-396"/>
<text text-anchor="middle" x="1166.5" y="-381" font-family="sans" font-size="10.00" fill="#000000">grep_snps_from_vcf</text>
<text text-anchor="middle" x="1166.5" y="-370" font-family="sans" font-size="10.00" fill="#000000">sample: sample05</text>
</g>
<!-- 26&#45;&gt;1 -->
<g id="edge26" class="edge">
<title>26&#45;&gt;1</title>
<path fill="none" stroke="#c0c0c0" stroke-width="2" d="M1166.5,-359.8314C1166.5,-352.131 1166.5,-342.9743 1166.5,-334.4166"/>
<polygon fill="#c0c0c0" stroke="#c0c0c0" stroke-width="2" points="1170.0001,-334.4132 1166.5,-324.4133 1163.0001,-334.4133 1170.0001,-334.4132"/>
</g>
<!-- 27 -->
<g id="node28" class="node">
<title>27</title>
<path fill="none" stroke="#c6d856" stroke-width="2" d="M423,-396C423,-396 332,-396 332,-396 326,-396 320,-390 320,-384 320,-384 320,-372 320,-372 320,-366 326,-360 332,-360 332,-360 423,-360 423,-360 429,-360 435,-366 435,-372 435,-372 435,-384 435,-384 435,-390 429,-396 423,-396"/>
<text text-anchor="middle" x="377.5" y="-381" font-family="sans" font-size="10.00" fill="#000000">grep_snps_from_vcf</text>
<text text-anchor="middle" x="377.5" y="-370" font-family="sans" font-size="10.00" fill="#000000">sample: sample03</text>
</g>
<!-- 27&#45;&gt;3 -->
<g id="edge29" class="edge">
<title>27&#45;&gt;3</title>
<path fill="none" stroke="#c0c0c0" stroke-width="2" d="M378.5094,-359.8314C378.9372,-352.131 379.4459,-342.9743 379.9213,-334.4166"/>
<polygon fill="#c0c0c0" stroke="#c0c0c0" stroke-width="2" points="383.4169,-334.592 380.477,-324.4133 376.4276,-334.2037 383.4169,-334.592"/>
</g>
<!-- 28 -->
<g id="node29" class="node">
<title>28</title>
<path fill="none" stroke="#c6d856" stroke-width="2" d="M208,-396C208,-396 117,-396 117,-396 111,-396 105,-390 105,-384 105,-384 105,-372 105,-372 105,-366 111,-360 117,-360 117,-360 208,-360 208,-360 214,-360 220,-366 220,-372 220,-372 220,-384 220,-384 220,-390 214,-396 208,-396"/>
<text text-anchor="middle" x="162.5" y="-381" font-family="sans" font-size="10.00" fill="#000000">grep_snps_from_vcf</text>
<text text-anchor="middle" x="162.5" y="-370" font-family="sans" font-size="10.00" fill="#000000">sample: sample04</text>
</g>
<!-- 28&#45;&gt;9 -->
<g id="edge40" class="edge">
<title>28&#45;&gt;9</title>
<path fill="none" stroke="#c0c0c0" stroke-width="2" d="M162.5,-359.8314C162.5,-352.131 162.5,-342.9743 162.5,-334.4166"/>
<polygon fill="#c0c0c0" stroke="#c0c0c0" stroke-width="2" points="166.0001,-334.4132 162.5,-324.4133 159.0001,-334.4133 166.0001,-334.4132"/>
</g>
<!-- 29 -->
<g id="node30" class="node">
<title>29</title>
<path fill="none" stroke="#c6d856" stroke-width="2" d="M876,-396C876,-396 785,-396 785,-396 779,-396 773,-390 773,-384 773,-384 773,-372 773,-372 773,-366 779,-360 785,-360 785,-360 876,-360 876,-360 882,-360 888,-366 888,-372 888,-372 888,-384 888,-384 888,-390 882,-396 876,-396"/>
<text text-anchor="middle" x="830.5" y="-381" font-family="sans" font-size="10.00" fill="#000000">grep_snps_from_vcf</text>
<text text-anchor="middle" x="830.5" y="-370" font-family="sans" font-size="10.00" fill="#000000">sample: sample02</text>
</g>
<!-- 29&#45;&gt;10 -->
<g id="edge41" class="edge">
<title>29&#45;&gt;10</title>
<path fill="none" stroke="#c0c0c0" stroke-width="2" d="M832.7711,-359.8314C833.7336,-352.131 834.8782,-342.9743 835.9479,-334.4166"/>
<polygon fill="#c0c0c0" stroke="#c0c0c0" stroke-width="2" points="839.4309,-334.7702 837.1983,-324.4133 832.4849,-333.9019 839.4309,-334.7702"/>
</g>
<!-- 30 -->
<g id="node31" class="node">
<title>30</title>
<path fill="none" stroke="#c6d856" stroke-width="2" d="M556,-396C556,-396 465,-396 465,-396 459,-396 453,-390 453,-384 453,-384 453,-372 453,-372 453,-366 459,-360 465,-360 465,-360 556,-360 556,-360 562,-360 568,-366 568,-372 568,-372 568,-384 568,-384 568,-390 562,-396 556,-396"/>
<text text-anchor="middle" x="510.5" y="-381" font-family="sans" font-size="10.00" fill="#000000">grep_snps_from_vcf</text>
<text text-anchor="middle" x="510.5" y="-370" font-family="sans" font-size="10.00" fill="#000000">sample: sample01</text>
</g>
<!-- 30&#45;&gt;17 -->
<g id="edge48" class="edge">
<title>30&#45;&gt;17</title>
<path fill="none" stroke="#c0c0c0" stroke-width="2" d="M507.4719,-359.8314C506.1885,-352.131 504.6624,-342.9743 503.2361,-334.4166"/>
<polygon fill="#c0c0c0" stroke="#c0c0c0" stroke-width="2" points="506.6653,-333.7018 501.5689,-324.4133 499.7606,-334.8526 506.6653,-333.7018"/>
</g>
<!-- 31 -->
<g id="node32" class="node">
<title>31</title>
<path fill="none" stroke="#c6d856" stroke-width="2" d="M1009,-396C1009,-396 918,-396 918,-396 912,-396 906,-390 906,-384 906,-384 906,-372 906,-372 906,-366 912,-360 918,-360 918,-360 1009,-360 1009,-360 1015,-360 1021,-366 1021,-372 1021,-372 1021,-384 1021,-384 1021,-390 1015,-396 1009,-396"/>
<text text-anchor="middle" x="963.5" y="-381" font-family="sans" font-size="10.00" fill="#000000">grep_snps_from_vcf</text>
<text text-anchor="middle" x="963.5" y="-370" font-family="sans" font-size="10.00" fill="#000000">sample: sample06</text>
</g>
<!-- 31&#45;&gt;25 -->
<g id="edge61" class="edge">
<title>31&#45;&gt;25</title>
<path fill="none" stroke="#c0c0c0" stroke-width="2" d="M959.4625,-359.8314C957.7513,-352.131 955.7165,-342.9743 953.8148,-334.4166"/>
<polygon fill="#c0c0c0" stroke="#c0c0c0" stroke-width="2" points="957.1779,-333.4159 951.5918,-324.4133 950.3446,-334.9344 957.1779,-333.4159"/>
</g>
</g>
</svg>
